<svg id="Layer_1" data-name="Layer 1" xmlns="http://www.w3.org/2000/svg" viewBox="0 0 190.82 36.93"><defs><style>.cls-1{fill:#13274d;}.cls-2{fill:#009c95;}.cls-2,.cls-3{fill-rule:evenodd;}.cls-3{fill:#0a2240;}</style></defs><title>orderwrite</title><path class="cls-1" d="M16.82,5.33c8.15,0,13.7,6.12,13.7,14.28S25,33.89,16.82,33.89,3.11,27.76,3.11,19.61,8.62,5.33,16.82,5.33Zm0,3.06c-6.21,0-10.15,4.76-10.15,11.22s3.94,11.22,10.15,11.22S27,26,27,19.61,23,8.39,16.82,8.39Z" transform="translate(-3.11 -2.44)"/><path class="cls-1" d="M48.56,32.41a1.17,1.17,0,0,1-1.16,1.1,1.26,1.26,0,0,1-1-.49l-5-7.31H37.09v6.61a1.21,1.21,0,0,1-1.19,1.19,1.2,1.2,0,0,1-1.22-1.19v-17A1.16,1.16,0,0,1,36,14.07h6.49c3.53,0,6,2.26,6,5.82a5.3,5.3,0,0,1-4.6,5.56l4.43,6.2A1.29,1.29,0,0,1,48.56,32.41ZM37.09,23.6h5.07A3.61,3.61,0,0,0,46,19.89a3.59,3.59,0,0,0-3.85-3.68H37.09Z" transform="translate(-3.11 -2.44)"/><path class="cls-1" d="M52.12,32.12V15.34a1.16,1.16,0,0,1,1.28-1.27h5.33c6,0,9.91,4.2,9.91,9.67s-3.91,9.65-9.91,9.65H53.4A1.16,1.16,0,0,1,52.12,32.12Zm6.61-.87c4.69,0,7.42-3.36,7.42-7.51s-2.64-7.53-7.42-7.53h-4.2v15Z" transform="translate(-3.11 -2.44)"/><path class="cls-1" d="M72.23,32.12V15.34a1.16,1.16,0,0,1,1.28-1.27H83.94a1.07,1.07,0,1,1,0,2.14h-9.3v6.23h9.09a1.07,1.07,0,1,1,0,2.14H74.64v6.67h9.3a1.07,1.07,0,1,1,0,2.14H73.51A1.16,1.16,0,0,1,72.23,32.12Z" transform="translate(-3.11 -2.44)"/><path class="cls-1" d="M102.42,32.41a1.17,1.17,0,0,1-1.15,1.1,1.26,1.26,0,0,1-1-.49l-5-7.31H91v6.61a1.21,1.21,0,0,1-2.41,0v-17a1.16,1.16,0,0,1,1.28-1.27h6.49c3.54,0,6.06,2.26,6.06,5.82a5.31,5.31,0,0,1-4.61,5.56l4.43,6.2A1.22,1.22,0,0,1,102.42,32.41ZM91,23.6H96a3.61,3.61,0,0,0,3.85-3.71A3.59,3.59,0,0,0,96,16.21H91Z" transform="translate(-3.11 -2.44)"/><path class="cls-1" d="M127.65,31.78,122,11.12l-5.63,20.66a2.4,2.4,0,0,1-4.63,0L104.93,8a2.45,2.45,0,0,1-.09-.53,1.84,1.84,0,0,1,1.83-1.82A1.8,1.8,0,0,1,108.4,7l5.84,21.82,6-21.86A1.79,1.79,0,0,1,122,5.62a1.76,1.76,0,0,1,1.74,1.32l6,21.86L135.56,7a1.81,1.81,0,0,1,3.56.46A2.43,2.43,0,0,1,139,8l-6.79,23.85a2.38,2.38,0,0,1-4.6,0Z" transform="translate(-3.11 -2.44)"/><path class="cls-1" d="M156.79,32.41a1.17,1.17,0,0,1-1.16,1.1,1.24,1.24,0,0,1-1-.49l-5.05-7.31h-4.26v6.61a1.2,1.2,0,0,1-2.4,0v-17a1.15,1.15,0,0,1,1.27-1.27h6.49c3.54,0,6.06,2.26,6.06,5.82a5.3,5.3,0,0,1-4.61,5.56l4.44,6.2A1.29,1.29,0,0,1,156.79,32.41ZM145.31,23.6h5.07a3.7,3.7,0,1,0,0-7.39h-5.07Z" transform="translate(-3.11 -2.44)"/><path class="cls-1" d="M169.56,32.32V16.21h-5.15a1.07,1.07,0,1,1,0-2.14h12.75a1.07,1.07,0,0,1,0,2.14H172V32.32a1.19,1.19,0,0,1-1.19,1.19A1.22,1.22,0,0,1,169.56,32.32Z" transform="translate(-3.11 -2.44)"/><path class="cls-1" d="M181.12,32.12V15.34a1.16,1.16,0,0,1,1.28-1.27h10.43a1.07,1.07,0,1,1,0,2.14h-9.3v6.23h9.1a1.07,1.07,0,1,1,0,2.14h-9.1v6.67h9.3a1.07,1.07,0,1,1,0,2.14H182.4A1.16,1.16,0,0,1,181.12,32.12Z" transform="translate(-3.11 -2.44)"/><path class="cls-2" d="M161.91,7.64a1.47,1.47,0,0,0-.53.2c-2.72,1.5-7.92,5.85-9.13,8.22.32-2.66,6.14-7.94,8.22-9.48.54.4.73,1,1.44,1.06" transform="translate(-3.11 -2.44)"/><path class="cls-3" d="M164,2.44a4.15,4.15,0,1,0,4.15,4.15A4.15,4.15,0,0,0,164,2.44" transform="translate(-3.11 -2.44)"/><path class="cls-2" d="M166.75,24a70.65,70.65,0,0,0,2.49-7.79" transform="translate(-3.11 -2.44)"/><path class="cls-2" d="M169.23,16.2a47,47,0,0,1-3.48,12.69,38.08,38.08,0,0,1-3.7,6.78,8.43,8.43,0,0,1-4,3.52,2.7,2.7,0,0,1-1.54.12c-1.76-.42-2.06-2.35-1.93-3.94a34.14,34.14,0,0,1,2.6-9.33q2.94-7.72,5.6-15.56a2.43,2.43,0,0,0,0-2.07A3.77,3.77,0,0,0,166.63,6c.85.75.6,2.11.26,3.19-2.1,6.7-4.8,13.2-7.28,19.77a15.63,15.63,0,0,0-1.31,5.3c0,.35,0,.72.43.91a.93.93,0,0,0,.59.07,2.13,2.13,0,0,0,1.09-.78,31.15,31.15,0,0,0,5.29-8.78C167,22.63,167.75,19.2,169.23,16.2Z" transform="translate(-3.11 -2.44)"/></svg>