<?xml version="1.0" encoding="UTF-8" standalone="no"?>
<!DOCTYPE svg PUBLIC "-//W3C//DTD SVG 1.1//EN" "http://www.w3.org/Graphics/SVG/1.1/DTD/svg11.dtd">
<svg version="1.1" xmlns="http://www.w3.org/2000/svg" xmlns:xlink="http://www.w3.org/1999/xlink" preserveAspectRatio="xMidYMid meet" viewBox="0 0 640 640" width="640" height="640"><defs><path d="M54.83 139.04L611.13 139.04L611.13 547.73L54.83 547.73L54.83 139.04Z" id="e1iQKoM2KI"></path><path d="M29.93 109.22L586.23 109.22L586.23 517.91L29.93 517.91L29.93 109.22Z" id="a3Zs4jBm3"></path><path d="M54.83 135.15L556.23 135.15L556.23 495.18L54.83 495.18L54.83 135.15Z" id="e1viOHC4se"></path><path d="M295 399.51L207.93 495.18L382.08 495.18L556.23 495.18L469.16 399.51L382.08 303.83L295 399.51Z" id="a6XX0JmWM"></path><path d="M158.17 379.07L54.83 495.18L261.52 495.18L468.2 495.18L364.87 379.07L261.52 262.97L158.17 379.07Z" id="a21x1w1TNL"></path><path d="M508.38 222.41C508.38 244.79 490.38 262.97 468.2 262.97C446.02 262.97 428.01 244.79 428.01 222.41C428.01 200.03 446.02 181.86 468.2 181.86C490.38 181.86 508.38 200.03 508.38 222.41Z" id="b1Tvdhn2hq"></path></defs><g><g><g><use xlink:href="#e1iQKoM2KI" opacity="1" fill="#e1f4ff" fill-opacity="1"></use><g><use xlink:href="#e1iQKoM2KI" opacity="1" fill-opacity="0" stroke="#4b9acb" stroke-width="7" stroke-opacity="1"></use></g></g><g><use xlink:href="#a3Zs4jBm3" opacity="1" fill="#ffffff" fill-opacity="1"></use><g><use xlink:href="#a3Zs4jBm3" opacity="1" fill-opacity="0" stroke="#4b9acb" stroke-width="7" stroke-opacity="1"></use></g></g><g><use xlink:href="#e1viOHC4se" opacity="1" fill="#e1f4ff" fill-opacity="1"></use><g><use xlink:href="#e1viOHC4se" opacity="1" fill-opacity="0" stroke="#4b9acb" stroke-width="0" stroke-opacity="1"></use></g></g><g><use xlink:href="#a6XX0JmWM" opacity="1" fill="#95d3f6" fill-opacity="1"></use></g><g><use xlink:href="#a21x1w1TNL" opacity="1" fill="#6cb8e3" fill-opacity="1"></use></g><g><use xlink:href="#b1Tvdhn2hq" opacity="1" fill="#ffffff" fill-opacity="1"></use></g></g></g></svg>